<svg width="41" height="41" viewBox="0 0 41 41" fill="none" xmlns="http://www.w3.org/2000/svg">
<path d="M36.8335 10.2916H26.6252V4.16659C26.6252 1.92075 24.7877 0.083252 22.5418 0.083252H18.4585C16.2127 0.083252 14.3752 1.92075 14.3752 4.16659V10.2916H4.16683C1.921 10.2916 0.0834961 12.1291 0.0834961 14.3749V36.8333C0.0834961 39.0791 1.921 40.9166 4.16683 40.9166H36.8335C39.0793 40.9166 40.9168 39.0791 40.9168 36.8333V14.3749C40.9168 12.1291 39.0793 10.2916 36.8335 10.2916ZM14.3752 20.4999C16.0697 20.4999 17.4377 21.8678 17.4377 23.5624C17.4377 25.257 16.0697 26.6249 14.3752 26.6249C12.6806 26.6249 11.3127 25.257 11.3127 23.5624C11.3127 21.8678 12.6806 20.4999 14.3752 20.4999ZM20.5002 32.7499H8.25016V31.2187C8.25016 29.177 12.3335 28.1562 14.3752 28.1562C16.4168 28.1562 20.5002 29.177 20.5002 31.2187V32.7499ZM22.5418 14.3749H18.4585V4.16659H22.5418V14.3749ZM32.7502 29.6874H24.5835V26.6249H32.7502V29.6874ZM32.7502 23.5624H24.5835V20.4999H32.7502V23.5624Z" fill="white"/>
</svg>
