<svg width="37" height="45" viewBox="0 0 37 45" fill="none" xmlns="http://www.w3.org/2000/svg">
<path d="M32.7917 4.08333H24.2575C23.4 1.715 21.1542 0 18.5 0C15.8458 0 13.6 1.715 12.7425 4.08333H4.20833C1.9625 4.08333 0.125 5.92083 0.125 8.16667V40.8333C0.125 43.0792 1.9625 44.9167 4.20833 44.9167H32.7917C35.0375 44.9167 36.875 43.0792 36.875 40.8333V8.16667C36.875 5.92083 35.0375 4.08333 32.7917 4.08333ZM18.5 4.08333C19.6229 4.08333 20.5417 5.00208 20.5417 6.125C20.5417 7.24792 19.6229 8.16667 18.5 8.16667C17.3771 8.16667 16.4583 7.24792 16.4583 6.125C16.4583 5.00208 17.3771 4.08333 18.5 4.08333ZM32.7917 40.8333H4.20833V8.16667H8.29167V14.2917H28.7083V8.16667H32.7917V40.8333Z" fill="white"/>
</svg>
