<svg width="41" height="41" viewBox="0 0 41 41" fill="none" xmlns="http://www.w3.org/2000/svg">
<path d="M18.4583 14.7017V0.083374C8.24992 1.10421 0.083252 9.86296 0.083252 20.5C0.083252 31.1371 8.24992 39.8959 18.4583 40.9167V26.2984C16.4166 25.4613 14.3749 23.195 14.3749 20.5C14.3749 17.805 16.4166 15.5388 18.4583 14.7017ZM26.3391 18.4584H40.9166C39.9366 8.76046 32.7499 1.04296 22.5416 0.083374V14.7017C24.5833 15.3142 25.6449 16.7025 26.3391 18.4584ZM22.5416 26.2984V40.9167C32.7499 39.9571 39.9366 32.2396 40.9166 22.5417H26.3391C25.6449 24.2975 24.5833 25.6859 22.5416 26.2984Z" fill="white"/>
</svg>
