<svg width="37" height="37" viewBox="0 0 37 37" fill="none" xmlns="http://www.w3.org/2000/svg">
<path d="M36.875 14.6617H23.0325L28.6266 8.90417C23.0529 3.39167 14.0287 3.1875 8.45496 8.7C2.88121 14.2329 2.88121 23.155 8.45496 28.6879C14.0287 34.2208 23.0529 34.2208 28.6266 28.6879C31.4033 25.9521 32.7916 22.7467 32.7916 18.7042H36.875C36.875 22.7467 35.0783 27.9937 31.485 31.5462C24.3187 38.6512 12.6812 38.6512 5.51496 31.5462C-1.63088 24.4617 -1.69213 12.9467 5.47412 5.86208C12.6404 -1.2225 24.135 -1.2225 31.3012 5.86208L36.875 0.125V14.6617ZM19.5208 10.3333V19.0104L26.6666 23.2571L25.1966 25.7275L16.4583 20.5417V10.3333H19.5208Z" fill="white"/>
</svg>
