<svg width="49" height="49" viewBox="0 0 49 49" fill="none" xmlns="http://www.w3.org/2000/svg">
<path fill-rule="evenodd" clip-rule="evenodd" d="M28.5835 16.3334C28.5835 20.8437 24.9272 24.5001 20.4168 24.5001C15.9065 24.5001 12.2502 20.8437 12.2502 16.3334C12.2502 11.8231 15.9065 8.16675 20.4168 8.16675C24.9272 8.16675 28.5835 11.8231 28.5835 16.3334ZM39.6698 36.7909C40.4047 35.5863 40.8335 34.1776 40.8335 32.6667C40.8335 28.1547 37.1789 24.5001 32.6668 24.5001C28.1547 24.5001 24.5002 28.1547 24.5002 32.6667C24.5002 37.1788 28.1547 40.8334 32.6668 40.8334C34.1777 40.8334 35.5864 40.3842 36.791 39.6697L42.0381 44.9167L44.9168 42.038L39.6698 36.7909ZM32.6668 36.7501C30.421 36.7501 28.5835 34.9126 28.5835 32.6667C28.5835 30.4209 30.421 28.5834 32.6668 28.5834C34.9127 28.5834 36.7502 30.4209 36.7502 32.6667C36.7502 34.9126 34.9127 36.7501 32.6668 36.7501ZM21.1314 28.6039C15.5577 28.3997 4.0835 31.1764 4.0835 36.7501V40.8335H23.561C18.5181 35.1985 21.0497 28.808 21.1314 28.6039Z" fill="white"/>
</svg>
