<svg width="45" height="29" viewBox="0 0 45 29" fill="none" xmlns="http://www.w3.org/2000/svg">
<path d="M30.6666 12.4584C34.0558 12.4584 36.7712 9.72254 36.7712 6.33337C36.7712 2.94421 34.0558 0.208374 30.6666 0.208374C27.2775 0.208374 24.5416 2.94421 24.5416 6.33337C24.5416 9.72254 27.2775 12.4584 30.6666 12.4584ZM14.3333 12.4584C17.7225 12.4584 20.4379 9.72254 20.4379 6.33337C20.4379 2.94421 17.7225 0.208374 14.3333 0.208374C10.9441 0.208374 8.20829 2.94421 8.20829 6.33337C8.20829 9.72254 10.9441 12.4584 14.3333 12.4584ZM14.3333 16.5417C9.57621 16.5417 0.041626 18.9305 0.041626 23.6875V28.7917H28.625V23.6875C28.625 18.9305 19.0904 16.5417 14.3333 16.5417ZM30.6666 16.5417C30.0745 16.5417 29.4008 16.5825 28.6862 16.6438C31.0545 18.3588 32.7083 20.6659 32.7083 23.6875V28.7917H44.9583V23.6875C44.9583 18.9305 35.4237 16.5417 30.6666 16.5417Z" fill="white"/>
</svg>
