<svg width="100" height="100" viewBox="0 0 100 100" fill="none" xmlns="http://www.w3.org/2000/svg">
<path fill-rule="evenodd" clip-rule="evenodd" d="M5.87311 39L5.89572 39.0814L8.16522 47.2487L8.16822 47.2595L8.16837 47.2707L8.18257 48.3516L8.1835 48.422C8.23079 48.4303 8.27805 48.4422 8.32492 48.458C8.73478 48.5936 8.98641 48.977 8.96319 49.3789L8.98835 49.3841L9.97556 49.5882L11.0501 48.9848L11.0712 48.9729L11.0937 48.9823L18.3453 52.0115L18.3858 52.0284L18.3728 52.0694L18.2137 52.571L18.1998 52.6148L18.1545 52.6031L9.7667 50.4358L9.76069 50.4343L9.75527 50.4313L8.78953 49.902L8.76933 49.8909C8.74603 49.9207 8.72101 49.9488 8.69446 49.9753L9.06614 63.9773L9.06674 64H9.04351H7.13758H7.11435L7.11495 63.9773L7.48235 50.1366L7.47498 50.1445L6.79733 50.8764L6.79453 52.0859L6.79448 52.1097L6.77496 52.124L0.463534 56.7384L0.428311 56.7641L0.398371 56.7326L0.0319554 56.3474L0 56.3138L0.0331249 56.2813L6.1514 50.2784L6.15577 50.2741L6.1611 50.2711L7.11264 49.7195L7.14846 49.6988L7.15891 49.711C7.06282 49.5047 7.04438 49.2634 7.12626 49.0317C7.20499 48.8052 7.3652 48.6282 7.5642 48.5214L7.54293 48.4577L7.2355 47.5363L6.17746 46.9353L6.13849 46.9131L6.13312 46.8694L5.19294 39.2287L5.18316 39.1492L5.26325 39.1319L5.78873 39.0182L5.87311 39ZM7.48022 50.0866L7.48357 50.0905L7.48362 50.0889C7.48248 50.0881 7.48135 50.0874 7.48022 50.0866ZM10.5535 41.6673L10.7576 41.6768C13.5399 41.8068 15.6812 44.1033 15.542 46.8135L15.5318 47.0125L15.1237 46.9926L15.1339 46.7935C15.2617 44.3045 13.2957 42.1945 10.7381 42.075L10.534 42.0655L10.5535 41.6673ZM10.1031 42.8789L10.5956 42.9018C12.736 43.0012 14.386 44.7683 14.278 46.8551L14.2532 47.3338L13.9228 46.9791L12.8389 45.8156C12.9704 46.1497 13.034 46.5157 13.014 46.8968L12.9889 47.3753L12.6587 47.0206L10.2728 44.4571L9.94175 44.1014L10.4336 44.124C10.8239 44.1419 11.1908 44.2389 11.5187 44.3985L10.4348 43.2349L10.1031 42.8789ZM13.8562 46.3149L11.1074 43.3643C12.5849 43.6567 13.7019 44.8548 13.8562 46.3149ZM12.5663 46.3283L10.9711 44.6144C11.7866 44.8525 12.4031 45.515 12.5663 46.3283ZM10.2721 45.3461L10.068 45.3363L10.0478 45.7346L10.252 45.7444C10.8875 45.7751 11.3755 46.2977 11.3418 46.9148L11.331 47.1139L11.7391 47.1351L11.75 46.936C11.7959 46.0954 11.1306 45.3875 10.2721 45.3461ZM45.3517 55.98C45.3517 52.4633 47.5918 50.1626 50.6234 50.1626C53.7225 50.1626 55.7267 52.4797 55.7267 55.7664C55.7267 59.5789 53.3519 61.6002 50.455 61.6002C47.4571 61.6002 45.3517 59.3324 45.3517 55.98ZM54.1772 55.8321C54.1772 53.6301 52.9982 51.3294 50.5561 51.3294C48.1307 51.3294 46.9181 53.515 46.9181 55.9471C46.9181 58.3135 48.2318 60.4334 50.5392 60.4334C52.8635 60.4334 54.1772 58.3464 54.1772 55.8321ZM25.3918 61.4194L24.1792 57.9356H20.1538L18.9748 61.4194H17.459L21.316 50.3434H23.0844L26.9582 61.4194H25.3918ZM21.5686 53.6136L20.457 56.8181H23.876L22.7644 53.6301C22.5271 52.9507 22.364 52.3294 22.2055 51.7253L22.1749 51.6088H22.1412C21.9728 52.2661 21.7875 52.9399 21.5686 53.6136ZM30.096 55.0433H34.5088V56.2265H30.096V60.2198H35.0141V61.4194H28.6307V50.3434H34.7614V51.543H30.096V55.0433ZM38.3857 61.4194H36.9204V50.4913C37.6615 50.3434 38.7226 50.2612 39.7331 50.2612C41.2995 50.2612 42.31 50.5406 43.0174 51.1651C43.5901 51.6581 43.9101 52.414 43.9101 53.2685C43.9101 54.7311 42.9669 55.7006 41.7711 56.095V56.1443C42.6469 56.4401 43.169 57.2289 43.4385 58.3793C43.809 59.924 44.0785 60.9922 44.3143 61.4194H42.7985C42.6132 61.1072 42.3606 60.1541 42.0405 58.7737C41.7037 57.2454 41.0974 56.6702 39.7668 56.6209H38.3857V61.4194ZM39.8342 51.3623C39.1268 51.3623 38.6215 51.428 38.3857 51.4937V55.5363H39.8847C41.4511 55.5363 42.4448 54.6982 42.4448 53.4329C42.4448 52.0032 41.3837 51.3787 39.8342 51.3623ZM57.0563 60.8771C57.6626 61.2715 58.8584 61.5838 59.9532 61.5838C62.6312 61.5838 63.928 60.1048 63.928 58.3957C63.928 56.7688 62.9512 55.865 61.0311 55.1419C59.4648 54.5503 58.7742 54.0409 58.7742 53.0056C58.7742 52.2497 59.3637 51.3458 60.9132 51.3458C61.9406 51.3458 62.6985 51.6745 63.0691 51.8717L63.4733 50.7049C62.968 50.4256 62.1259 50.1626 60.9638 50.1626C58.7574 50.1626 57.2921 51.4444 57.2921 53.1699C57.2921 54.7311 58.4374 55.6678 60.2901 56.3087C61.8227 56.8838 62.4291 57.4754 62.4291 58.5107C62.4291 59.6282 61.5533 60.4006 60.0543 60.4006C59.0437 60.4006 58.0837 60.0719 57.4268 59.6775L57.0563 60.8771ZM71.8131 55.0433H67.4004V51.543H72.0658V50.3434H65.9351V61.4194H72.3184V60.2198H67.4004V56.2265H71.8131V55.0433ZM75.6058 61.4194V56.6866C75.6058 54.8461 75.5722 53.515 75.4879 52.1182L75.5385 52.1018C76.1111 53.3014 76.869 54.5668 77.6606 55.7992L81.2649 61.4194H82.7471V50.3434H81.366V54.9776C81.366 56.7031 81.3997 58.0506 81.5344 59.5296L81.5007 59.546C80.9618 58.4121 80.3049 57.2454 79.4628 55.9471L75.8248 50.3434H74.2248V61.4194H75.6058ZM84.7379 60.8771C85.3442 61.2715 86.5401 61.5838 87.6348 61.5838C90.3128 61.5838 91.6097 60.1048 91.6097 58.3957C91.6097 56.7688 90.6328 55.865 88.7127 55.1419C87.1464 54.5503 86.4558 54.0409 86.4558 53.0056C86.4558 52.2497 87.0453 51.3458 88.5948 51.3458C89.6222 51.3458 90.3801 51.6745 90.7507 51.8717L91.1549 50.7049C90.6496 50.4256 89.8075 50.1626 88.6454 50.1626C86.439 50.1626 84.9737 51.4444 84.9737 53.1699C84.9737 54.7311 86.119 55.6678 87.9717 56.3087C89.5043 56.8838 90.1107 57.4754 90.1107 58.5107C90.1107 59.6282 89.2349 60.4006 87.7359 60.4006C86.7253 60.4006 85.7653 60.0719 85.1084 59.6775L84.7379 60.8771ZM99.4947 55.0433H95.082V51.543H99.7474V50.3434H93.6167V61.4194H100V60.2198H95.082V56.2265H99.4947V55.0433Z" fill="white"/>
</svg>
