<svg width="100" height="100" viewBox="0 0 100 100" fill="none" xmlns="http://www.w3.org/2000/svg">
<path fill-rule="evenodd" clip-rule="evenodd" d="M53.8957 65.5272H52.6771V70.2844C52.6771 70.9445 52.6243 71.4102 52.5198 71.6824C52.415 71.9543 52.2442 72.1902 52.0062 72.3903C51.5552 72.7622 50.971 72.9481 50.2541 72.9481C49.7506 72.9481 49.3136 72.855 48.943 72.6691C48.5727 72.4832 48.2967 72.2362 48.1155 71.9283C47.9341 71.6203 47.8436 71.0723 47.8436 70.2844V65.5272H46.6248V70.2702C46.6248 70.9461 46.6702 71.4415 46.7609 71.7576C46.8516 72.0734 46.9665 72.3398 47.1058 72.5578C47.2448 72.7758 47.4151 72.9728 47.6168 73.1485C48.2821 73.7162 49.1653 74 50.2663 74C51.3472 74 52.2224 73.7141 52.8918 73.1424C53.0934 72.9707 53.2635 72.7758 53.4027 72.5578C53.5418 72.3398 53.6588 72.0671 53.7535 71.7395C53.8484 71.4118 53.8957 70.9261 53.8957 70.2823V65.5272ZM22.825 65.5109H29.8804V66.5791H26.9372V73.9014H25.7184V66.5791H22.825V65.5109ZM84.1647 50.7963V57.2992L77.499 49.9416V59.1702H78.6348V52.7231L85.3172 60.1106V50.7963H84.1647ZM21.0874 58.5457V57.2308C20.111 57.8554 19.1109 58.1678 18.0863 58.1678C17.106 58.1678 16.3013 57.8722 15.6723 57.2805C15.043 56.6893 14.7283 55.9338 14.7283 55.015C14.7283 54.1037 15.048 53.3453 15.6871 52.74C16.3265 52.1343 17.1301 51.8316 18.0982 51.8316C19.0419 51.8316 20.0078 52.1112 20.9961 52.67V51.3796C19.9113 50.9194 18.9251 50.6893 18.038 50.6893C16.7513 50.6893 15.6694 51.105 14.7923 51.9366C13.9149 52.7678 13.4764 53.7929 13.4764 55.0123C13.4764 55.7797 13.6679 56.4931 14.0513 57.1527C14.4344 57.812 14.9546 58.3298 15.6121 58.7053C16.2695 59.0814 17.0701 59.2688 18.0138 59.2688C19.1753 59.2688 20.1999 59.0277 21.0874 58.5457ZM10 48.9516C10 48.9516 43.9539 28.4352 90 48.6057C90 48.6057 53.8375 37.8869 10 48.9516ZM11.1629 42.036C11.1629 42.036 36.279 23.7095 74.9999 37.3101C74.9999 37.3101 42.2093 31.3169 11.1629 42.036ZM41.0465 27.7435C41.0465 27.7435 64.6512 20.0212 89.3023 37.0797C89.3023 37.0797 69.5349 27.2825 41.0465 27.7435ZM31.6911 55.62L30.324 52.5874L29.0527 55.62H31.6911ZM34.5482 59.1702H33.31L32.1843 56.6885H28.5805L27.5254 59.1702H26.2824L30.3124 49.9766L34.5482 59.1702ZM52.8313 55.4475H53.9636C54.565 55.4475 55.0052 55.4996 55.2837 55.6035C55.5623 55.7071 55.7772 55.8651 55.9287 56.0768C56.0802 56.2885 56.1558 56.5223 56.1558 56.7777C56.1558 57.0254 56.0839 57.2571 55.9406 57.4727C55.7974 57.6886 55.6074 57.8475 55.3715 57.9492C55.1354 58.0513 54.6863 58.102 54.0241 58.102H52.8313V55.4475ZM52.8313 51.8645H53.8739C54.9089 51.8645 55.4262 52.2658 55.4262 53.0679C55.4262 53.4552 55.2896 53.7705 55.0168 54.014C54.7441 54.2576 54.2841 54.3793 53.6375 54.3793H52.8313V51.8645ZM51.6207 59.1702H54.4838C55.1296 59.1702 55.6671 59.0642 56.0971 58.8525C56.5267 58.6406 56.8527 58.3668 57.0748 58.031C57.2968 57.6954 57.4077 57.3136 57.4077 56.886C57.4077 56.3461 57.2249 55.8825 56.8599 55.4949C56.4946 55.107 56.0035 54.855 55.3856 54.7393C56.2476 54.3835 56.6782 53.7945 56.6782 52.9716C56.6782 52.544 56.575 52.1674 56.3693 51.8419C56.1629 51.5163 55.8645 51.2607 55.4729 51.0748C55.081 50.8891 54.5358 50.7963 53.8376 50.7963H51.6207V59.1702ZM67.1262 51.8153C66.1586 51.8153 65.3635 52.1151 64.7406 52.7152C64.1179 53.3151 63.8065 54.0809 63.8065 55.0126C63.8065 55.9162 64.1187 56.6683 64.7438 57.2681C65.3683 57.868 66.1507 58.1678 67.0901 58.1678C68.033 58.1678 68.8201 57.8619 69.4513 57.2502C70.0819 56.638 70.3973 55.8762 70.3973 54.9645C70.3973 54.0767 70.0819 53.3298 69.4513 52.7242C68.8201 52.1183 68.0452 51.8153 67.1262 51.8153ZM67.0766 50.673C68.3824 50.673 69.4696 51.0829 70.3385 51.9029C71.2068 52.7226 71.6411 53.7503 71.6411 54.986C71.6411 56.2218 71.2028 57.2445 70.326 58.0542C69.4494 58.8639 68.3439 59.2688 67.0102 59.2688C65.7365 59.2688 64.6753 58.8639 63.8271 58.0542C62.9787 57.2445 62.5545 56.2296 62.5545 55.01C62.5545 53.7582 62.9816 52.7226 63.8362 51.9029C64.6907 51.0829 65.7707 50.673 67.0766 50.673ZM61.9962 70.3951L61.0767 69.8421C60.4994 69.4934 60.089 69.1505 59.8449 68.8123C59.6008 68.4744 59.4785 68.0857 59.4785 67.6457C59.4785 66.9859 59.7096 66.4502 60.1715 66.0384C60.6336 65.6263 61.2335 65.4204 61.9718 65.4204C62.6778 65.4204 63.3251 65.6155 63.9141 66.0061V67.3701C63.3047 66.7882 62.6483 66.497 61.9461 66.497C61.5505 66.497 61.2253 66.5872 60.9711 66.7687C60.7167 66.9494 60.5896 67.181 60.5896 67.4637C60.5896 67.7144 60.6833 67.9492 60.8711 68.168C61.0587 68.3868 61.36 68.6169 61.775 68.858L62.6993 69.4011C63.7303 70.012 64.2457 70.7893 64.2457 71.7329C64.2457 72.4048 64.0186 72.9505 63.565 73.3702C63.1108 73.7901 62.5205 74 61.7943 74C60.9584 74 60.1978 73.7447 59.5117 73.2337V71.7134C60.1662 72.5368 60.9234 72.9481 61.7835 72.9481C62.1628 72.9481 62.4791 72.8434 62.7314 72.6338C62.9837 72.4243 63.11 72.1621 63.11 71.8468C63.11 71.3358 62.7388 70.8519 61.9962 70.3951ZM76.2508 65.5109H69.1953V66.5791H72.0887V73.9014H73.3075V66.5791H76.2508V65.5109ZM44.9522 59.1681L42.1474 55.4851C41.6993 55.5362 41.373 55.5298 41.373 55.5298H41.0578V59.1702H39.8473V50.7963H41.9654C42.8208 50.7963 43.4994 51.0061 44.0019 51.4261C44.5041 51.8461 44.7554 52.4138 44.7554 53.1299C44.7554 53.6177 44.6323 54.0398 44.3863 54.3956C44.1404 54.7517 43.7878 55.0176 43.328 55.1935L46.3639 59.1702L44.9522 59.1681ZM41.421 51.8153H41.0578V54.4614H41.5179C42.1313 54.4614 42.552 54.4093 42.7799 54.3054C43.0081 54.2013 43.1856 54.0446 43.3129 53.8344C43.44 53.6246 43.5034 53.3853 43.5034 53.1173C43.5034 52.8533 43.4328 52.6142 43.2917 52.4002C43.1503 52.1864 42.9516 52.0354 42.6953 51.9473C42.439 51.8592 42.0143 51.8153 41.421 51.8153ZM37.6869 70.2047L40.4914 73.8877L41.9031 73.89L38.8675 69.9133C39.327 69.7374 39.6798 69.4713 39.9258 69.1154C40.1717 68.7594 40.2948 68.3376 40.2948 67.8495C40.2948 67.1337 40.0436 66.5656 39.5411 66.1459C39.0389 65.726 38.36 65.5158 37.5049 65.5158H35.3867V73.89H36.597V70.2494H36.9122C36.9122 70.2494 37.2388 70.256 37.6869 70.2047ZM36.597 66.5349H36.9602C37.5537 66.5349 37.9785 66.5788 38.2345 66.6669C38.4908 66.755 38.6897 66.9059 38.8309 67.12C38.972 67.3338 39.0428 67.5731 39.0428 67.8369C39.0428 68.1051 38.9792 68.3441 38.8521 68.5543C38.725 68.7644 38.5473 68.9211 38.3194 69.0253C38.0912 69.1291 37.6707 69.1812 37.0573 69.1812H36.597V66.5349Z" fill="white"/>
</svg>
