<svg width="100" height="100" viewBox="0 0 100 100" fill="none" xmlns="http://www.w3.org/2000/svg">
<path d="M0 61.802H2.22V49.02L0 50.6054V61.802Z" fill="white"/>
<path d="M8.89998 52.032C7.47998 52.032 5.83998 52.3292 4.47998 52.8445V61.782H6.63998V54.2515C7.19998 54.0731 7.95998 53.9741 8.71998 53.9741C9.91998 53.9741 10.78 54.4695 10.78 55.8567V61.8018H12.92V55.6585C12.92 52.9634 11.36 52.032 8.89998 52.032Z" fill="white"/>
<path d="M19.4398 52.032C18.0198 52.032 16.3798 52.3292 15.0198 52.8445V61.782H17.1798V54.2515C17.7398 54.0731 18.4998 53.9741 19.2598 53.9741C20.4598 53.9741 21.3198 54.4695 21.3198 55.8567V61.8018H23.4598V55.6585C23.4598 52.9634 21.8998 52.032 19.4398 52.032Z" fill="white"/>
<path d="M67.4999 52.0518C64.8599 52.0518 62.8599 54.0731 62.8599 57.1051C62.8599 60.1173 64.8999 62.0197 67.8999 62.0197C69.1399 62.0197 70.4199 61.7423 71.2799 61.128V61.0883L70.3199 59.7804C69.6599 60.0579 68.9399 60.1966 68.0399 60.1966C66.5399 60.1966 65.0599 59.2652 64.9399 57.5807V57.5411H71.6199V56.471C71.6199 53.8353 70.2999 52.0518 67.4999 52.0518ZM67.4399 53.8353C68.8199 53.8353 69.5599 54.6478 69.6199 56.1341H65.0199C65.2799 54.6874 66.1999 53.8353 67.4399 53.8353Z" fill="white"/>
<path d="M30.1402 52.032C27.2602 52.032 25.1802 54.0533 25.1802 57.0259C25.1802 59.9786 27.2602 62 30.1402 62C33.0402 62 35.1202 59.9786 35.1202 57.0259C35.1202 54.0731 33.0202 52.032 30.1402 52.032ZM30.1402 53.875C31.8002 53.875 32.9402 55.1036 32.9402 57.0457C32.9402 58.968 31.7802 60.1966 30.1402 60.1966C28.5402 60.1966 27.3602 58.968 27.3602 57.0457C27.3602 55.1036 28.5202 53.875 30.1402 53.875Z" fill="white"/>
<path d="M40.46 59.721L37.74 52.25H35.46L39.18 61.8018H41.64L45.38 52.25H43.16L40.46 59.721Z" fill="white"/>
<path d="M49.9599 52.032C48.7599 52.032 47.6799 52.3292 46.8399 52.8048V54.6478C47.6399 54.192 48.5199 53.875 49.6199 53.875C50.6799 53.875 51.4599 54.3506 51.4599 55.3811V56.1738H50.3999C47.6199 56.1738 45.9399 57.125 45.9399 59.067C45.9399 61.2271 47.7599 61.9802 50.2599 61.9802C51.3399 61.9802 52.6599 61.8216 53.5599 61.5838V55.3018C53.5599 52.9039 52.0599 52.032 49.9599 52.032ZM50.5399 57.6204H51.4599V60.2957C51.0599 60.3552 50.6199 60.3948 50.2799 60.3948C48.9799 60.3948 48.0599 59.9984 48.0599 59.0076C48.0599 58.0564 49.0399 57.6204 50.5399 57.6204Z" fill="white"/>
<path d="M58.7199 58.6905V54.1524H61.4599V52.3689H58.7199V49L56.5799 50.5259V52.3689H55.1199V54.1524H56.5799V59.1662C56.5799 61.346 57.8999 62.1189 59.4799 62.1189C60.3999 62.1189 61.1799 61.9207 61.7999 61.6037V59.6814C61.2199 60.0183 60.6599 60.2165 60.0399 60.2165C59.2199 60.2363 58.7199 59.8399 58.7199 58.6905Z" fill="white"/>
<path d="M85 60.3158C84.24 60.4545 83.46 60.5337 82.46 60.5337C80.54 60.5337 79.24 59.8798 79.24 57.4225V49.02L77.02 50.6252V57.8386C77.02 61.3859 79.52 62.4362 82.46 62.4362C84 62.4362 86.02 62.1786 87.22 61.8615V49.02H85V60.3158Z" fill="white"/>
<path d="M89.72 49.02H91.94V61.8218H89.72V49.02Z" fill="white"/>
<path d="M99.62 49.02H97.2L92.5 55.4209L97.2 61.802H99.62L94.92 55.4011L99.62 49.02Z" fill="white"/>
</svg>
