<svg width="100" height="100" viewBox="0 0 100 100" fill="none" xmlns="http://www.w3.org/2000/svg">
<path d="M35.5214 34.4939C28.2361 27.132 16.3649 27.086 9.00298 34.3712C1.64101 41.6565 1.595 53.5277 8.88028 60.8896C16.1656 68.2516 28.0367 68.2976 35.3987 61.0123C35.414 60.997 35.4447 60.9663 35.46 60.951C38.8496 57.5614 44.7699 52.8682 44.7699 47.6995C44.7852 42.5461 38.8803 37.8835 35.5214 34.4939ZM34.5705 58.3283C31.7637 61.1504 27.96 62.7301 23.9723 62.7301C23.5122 62.7301 23.0521 62.6995 22.5919 62.6688C22.3619 62.6535 22.1318 62.6228 21.9018 62.5921C21.4416 62.6535 20.9968 62.6995 20.5214 62.7148C20.2913 62.7301 20.0613 62.7301 19.8312 62.7301C11.549 62.6688 4.87721 55.9203 4.93856 47.6228C4.99991 39.4173 11.6257 32.7762 19.8312 32.7301C20.0613 32.7301 20.2913 32.7301 20.5214 32.7455C20.9815 32.7608 21.4416 32.8068 21.9018 32.8682C22.1318 32.8375 22.3619 32.8068 22.5919 32.7915C23.0521 32.7455 23.5122 32.7301 23.9723 32.7301C27.9754 32.7301 31.8097 34.3252 34.6165 37.178C37.3005 39.8927 42.0245 43.6197 42.0245 47.7455C42.0245 51.8559 37.2852 55.6136 34.5705 58.3283Z" fill="white"/>
<path d="M34.6166 37.1626C31.8098 34.3252 27.9755 32.7148 23.9724 32.7148C23.2822 32.6994 22.592 32.7454 21.9019 32.8681C25.5062 33.2056 29.4479 34.724 31.8559 37.1626C34.5399 39.8773 39.2638 43.6043 39.2638 47.7301C39.2638 51.8712 34.5246 55.6135 31.8098 58.3283C29.0491 61.089 25.4908 62.2546 21.9019 62.5767C22.592 62.6841 23.2822 62.7301 23.9724 62.7301C27.9448 62.7301 31.7638 61.1503 34.5706 58.3283C37.2853 55.6135 42.0246 51.8559 42.0246 47.7301C42.0246 43.6043 37.3006 39.8773 34.6166 37.1626Z" fill="#EEEEEE"/>
<path d="M21.9019 32.868C25.1534 33.3128 28.1749 34.8312 30.4755 37.1625C33.1595 39.8772 37.8834 43.6042 37.8834 47.73C37.8834 51.8711 33.1442 55.6135 30.4295 58.3282C28.1288 60.6441 25.1227 62.1319 21.9019 62.5766C25.4448 62.2699 29.1104 61.0736 31.8098 58.3282C34.5092 55.5828 39.2638 51.8558 39.2638 47.73C39.2638 43.6196 34.5399 39.8772 31.8558 37.1625C29.4479 34.7239 25.5215 33.2055 21.9019 32.868Z" fill="#9E9E9E"/>
<path d="M6.22679 47.73C6.22679 39.6932 12.6838 33.0982 21.917 32.8681C21.2268 32.7761 20.5366 32.7147 19.8464 32.7147C11.5642 32.7761 4.89244 39.5245 4.95379 47.8221C5.01514 56.0276 11.6409 62.6687 19.8464 62.7147C20.5366 62.7454 21.2268 62.6994 21.917 62.5613C13.9875 62.7914 6.22679 55.7669 6.22679 47.73Z" fill="#EEEEEE"/>
<path d="M8.97241 47.73C8.95707 40.2453 14.4939 33.8956 21.9019 32.868C12.6841 33.0828 6.21167 39.6779 6.21167 47.73C6.21167 55.7822 13.9571 62.8067 21.9019 62.592C14.4939 61.549 8.98774 55.2147 8.97241 47.73Z" fill="#9E9E9E"/>
<path d="M55.0922 41.5336C51.7946 41.5336 49.1106 44.2177 49.1106 47.5152C49.1106 50.8128 51.7946 53.4968 55.0922 53.4968C58.3897 53.4968 61.0738 50.8128 61.0738 47.5152C61.0738 47.4846 61.0738 47.4539 61.0738 47.4385C61.0891 44.187 58.4664 41.549 55.2149 41.5336C55.1689 41.5336 55.1382 41.5336 55.0922 41.5336ZM55.0922 51.7177C52.8376 51.6563 51.0738 49.7698 51.1351 47.5152C51.1351 47.4846 51.1351 47.4692 51.1351 47.4385C51.0738 45.2606 52.7916 43.4355 54.9695 43.3741C57.1474 43.3128 58.9726 45.0306 59.0339 47.2085C59.0339 47.2852 59.0339 47.3619 59.0339 47.4385C59.1413 49.6931 57.4081 51.6103 55.1535 51.7177C55.1382 51.7177 55.1229 51.7177 55.0922 51.7177ZM67.6229 46.687C66.4419 46.1962 65.4143 45.7668 65.4143 44.8312C65.4143 43.9876 66.2118 43.3435 67.2701 43.3435C68.2057 43.3741 69.1106 43.7269 69.8468 44.3251L70.6904 42.73C69.7394 41.9324 68.5278 41.503 67.2854 41.5336C65.0922 41.5336 63.4358 42.96 63.4358 44.8619C63.4358 46.8557 65.1689 47.6073 66.7026 48.2668C67.9143 48.7882 68.9726 49.2484 68.9726 50.1993C68.9726 51.2422 68.083 51.7024 67.1934 51.7024C66.1198 51.6563 65.0769 51.2269 64.2793 50.506L63.221 51.9784C64.2946 52.9754 65.7057 53.5275 67.1627 53.5122C69.3867 53.5122 70.9511 52.1318 70.9511 50.1533C70.9358 48.052 69.1719 47.3312 67.6229 46.687ZM80.675 41.733H73.1597V43.3588H75.9818V53.3128H77.8223V43.3588H80.675V41.733ZM49.8468 60.3527C49.8468 59.0183 50.583 58.0367 51.9173 58.0367C53.2364 58.0367 53.8805 59.0183 53.8805 60.2606C53.8805 61.7177 53.175 62.6686 51.8407 62.6686C50.4756 62.6686 49.8468 61.687 49.8468 60.3527ZM53.4511 60.322C53.4511 59.0797 52.8376 58.4048 51.9173 58.4048C50.9818 58.4048 50.2916 59.095 50.2916 60.3527C50.2916 61.6103 50.9357 62.3005 51.8713 62.3005C52.7916 62.3005 53.4511 61.6563 53.4511 60.322ZM56.8867 60.322L56.4726 60.368C56.3959 59.9539 56.2732 59.7238 55.7517 59.7238C55.1996 59.7238 55.0769 59.9692 55.0769 60.23C55.0769 60.5981 55.3529 60.6901 55.8284 60.7974C56.4112 60.9355 56.9327 61.0582 56.9327 61.7484C56.9327 62.3005 56.5186 62.6533 55.7517 62.6533C55.0615 62.6533 54.6167 62.3925 54.5247 61.7024L54.9235 61.641C54.9542 62.0398 55.3069 62.3465 55.721 62.3158C55.7364 62.3158 55.7517 62.3158 55.7824 62.3158C56.1965 62.3158 56.5186 62.1932 56.5186 61.7944C56.5186 61.4263 56.2578 61.3496 55.7977 61.2269C55.2762 61.0889 54.6474 61.0122 54.6474 60.2913C54.6474 59.6778 55.1689 59.3864 55.767 59.3864C56.3038 59.3097 56.7946 59.6778 56.8713 60.2146C56.8713 60.2453 56.8867 60.2913 56.8867 60.322ZM59.402 62.4692C59.1873 62.5919 58.9419 62.6686 58.6812 62.6686C58.2824 62.73 57.8989 62.4692 57.8376 62.0705C57.8223 61.9938 57.8223 61.9171 57.8376 61.8251V59.7852H57.3468V59.4324H57.8376V58.5275L58.2517 58.4662V59.4324H59.1413V59.7852H58.2517V61.7637C58.2517 62.1165 58.3284 62.3312 58.7425 62.3312C58.9419 62.3158 59.1413 62.2698 59.31 62.1778L59.402 62.4692ZM62.1321 60.322L61.718 60.368C61.6413 59.9539 61.5186 59.7238 60.9971 59.7238C60.445 59.7238 60.3223 59.9692 60.3223 60.23C60.3223 60.5981 60.5983 60.6901 61.0738 60.7974C61.6566 60.9355 62.1781 61.0582 62.1781 61.7484C62.1781 62.3005 61.764 62.6533 60.9971 62.6533C60.3069 62.6533 59.8621 62.3925 59.7701 61.7024L60.1689 61.641C60.1996 62.0398 60.5523 62.3465 60.9664 62.3158C60.9818 62.3158 60.9971 62.3158 61.0278 62.3158C61.4419 62.3158 61.764 62.1932 61.764 61.7944C61.764 61.4263 61.5032 61.3496 61.0431 61.2269C60.5216 61.0889 59.8928 61.0122 59.8928 60.2913C59.8928 59.6778 60.4143 59.3864 61.0124 59.3864C61.5492 59.3097 62.04 59.6778 62.1167 60.2146C62.1321 60.2453 62.1321 60.2913 62.1321 60.322ZM62.8529 61.0428C62.8529 59.9386 63.4051 59.3864 64.356 59.3864C64.9388 59.3251 65.4603 59.7545 65.5063 60.3527C65.5063 60.3833 65.5063 60.414 65.5063 60.4447L65.0922 60.506C65.0308 59.9999 64.8008 59.7545 64.31 59.7545C63.8192 59.7545 63.2824 60.0306 63.2824 60.9968C63.2824 62.0398 63.7885 62.3158 64.31 62.3158C64.7241 62.3619 65.0922 62.0705 65.1382 61.6563C65.1382 61.641 65.1382 61.6257 65.1382 61.6257L65.537 61.7024C65.445 62.3158 64.8928 62.7453 64.2793 62.684C63.2364 62.6686 62.8529 61.9938 62.8529 61.0428ZM68.9726 62.5919H68.5585V60.506C68.5585 60.0306 68.3897 59.7392 67.8989 59.7392C67.5002 59.7698 67.1321 59.9232 66.8407 60.1839V62.5919H66.4265V57.9293H66.8407V59.8312C67.1627 59.5551 67.5769 59.4017 68.0063 59.3864C68.6812 59.3864 68.9726 59.7698 68.9726 60.4754V62.5919ZM70.5523 62.5919L69.5247 59.4324H69.9542L70.7977 62.1625L71.5492 59.4324H72.0094L72.7456 62.1625L73.5891 59.4324H73.9879L72.991 62.5919H72.4848L71.764 59.8925L71.0431 62.5919H70.5523ZM74.4174 61.0122C74.2947 60.23 74.8315 59.5091 75.6137 59.3864C75.7057 59.3711 75.7977 59.3711 75.8897 59.3711C76.764 59.3711 77.1167 59.9539 77.1167 60.7054C77.1167 60.8281 77.1014 60.9662 77.0861 61.0889H74.8621C74.8928 62.0398 75.3223 62.2852 75.8897 62.2852C76.2732 62.3465 76.6259 62.0705 76.6873 61.687L77.0861 61.7637C76.9634 62.3312 76.4419 62.7146 75.8591 62.6533C74.7394 62.6686 74.4174 61.8864 74.4174 61.0122ZM76.6719 60.7668C76.6873 60.1226 76.4419 59.7392 75.8437 59.7392C75.3069 59.7238 74.8621 60.1379 74.8468 60.6747C74.8468 60.7054 74.8468 60.7361 74.8468 60.7668H76.6719ZM78.267 58.6655C78.083 58.6655 77.945 58.5122 77.945 58.3281C77.945 58.1441 78.0983 58.006 78.2824 58.006C78.4664 58.006 78.6045 58.1594 78.6045 58.3281C78.6198 58.4968 78.4971 58.6349 78.3284 58.6502C78.3131 58.6809 78.2824 58.6809 78.267 58.6655ZM78.4664 62.5919H78.0523V59.4324H78.4664V62.5919ZM79.7088 62.2545H81.6873V62.6073H79.218V62.3158L81.1351 59.8005H79.2486V59.4478H81.6259V59.7392L79.7088 62.2545ZM82.1321 61.0122C82.0094 60.23 82.5462 59.5091 83.3284 59.3864C83.4204 59.3711 83.5124 59.3711 83.6045 59.3711C84.4787 59.3711 84.8315 59.9539 84.8315 60.7054C84.8315 60.8281 84.8161 60.9662 84.8008 61.0889H82.5769C82.6075 62.0398 83.037 62.2852 83.6045 62.2852C83.9879 62.3465 84.3407 62.0705 84.402 61.687L84.8008 61.7637C84.6781 62.3312 84.1566 62.7146 83.5738 62.6533C82.4542 62.6686 82.1321 61.8864 82.1321 61.0122ZM84.3867 60.7668C84.402 60.1226 84.1566 59.7392 83.5585 59.7392C83.0216 59.7238 82.5769 60.1379 82.5615 60.6747C82.5615 60.7054 82.5615 60.7361 82.5615 60.7668H84.3867ZM87.3161 59.8159C86.902 59.7698 86.4879 59.8925 86.1658 60.1839V62.6073H85.7517V59.4478H86.0891L86.1198 59.8925C86.3652 59.5398 86.7793 59.3557 87.1934 59.3864H87.2854L87.3161 59.8159ZM50.5677 69.7545H50.1535V65.276H52.6996V65.6287H50.5677V67.3772H52.5308V67.7453H50.5677V69.7545ZM55.4756 69.2484C55.4756 69.4171 55.5063 69.4938 55.675 69.4938C55.7364 69.4938 55.8131 69.4784 55.8744 69.4631L55.9051 69.7238C55.7824 69.7852 55.6597 69.8159 55.5216 69.8159C55.3223 69.8312 55.1382 69.6778 55.1075 69.4784C55.1075 69.4631 55.1075 69.4324 55.1075 69.4171C54.8315 69.6932 54.448 69.8465 54.0492 69.8312C53.6045 69.8925 53.1904 69.5858 53.1137 69.141C53.0983 69.0797 53.0983 69.0336 53.0983 68.9723C53.0983 68.0827 53.9112 67.914 54.6321 67.914C54.8161 67.914 54.9235 67.914 55.0462 67.9293V67.6073C55.0462 67.1318 54.9081 66.8711 54.356 66.8711C53.8499 66.8711 53.6811 67.0705 53.6045 67.4386L53.2057 67.3772C53.2977 66.7944 53.6965 66.549 54.3713 66.549C55.1229 66.549 55.445 66.8404 55.445 67.6226L55.4756 69.2484ZM55.0615 68.2668C54.9388 68.2514 54.8008 68.2514 54.6627 68.2514C54.2333 68.2514 53.5278 68.2821 53.5278 68.9263C53.5278 69.233 53.6351 69.5091 54.1259 69.5091C54.4787 69.4938 54.8161 69.3404 55.0462 69.0797L55.0615 68.2668ZM56.3652 68.1901C56.3652 67.0858 56.9173 66.5336 57.8683 66.5336C58.4511 66.4723 58.9726 66.9017 59.0186 67.4999C59.0186 67.5306 59.0186 67.5613 59.0186 67.5919L58.6045 67.6533C58.5431 67.1471 58.3131 66.9017 57.8223 66.9017C57.3315 66.9017 56.7946 67.1778 56.7946 68.1441C56.7946 69.187 57.3008 69.4631 57.8223 69.4631C58.2364 69.5091 58.6045 69.2177 58.6505 68.8036C58.6505 68.7882 58.6505 68.7729 58.6505 68.7729L59.0492 68.8496C58.9572 69.4631 58.4051 69.8925 57.7916 69.8312C56.7486 69.8312 56.3652 69.1563 56.3652 68.1901ZM62.4848 69.7545H62.0707V67.6686C62.0707 67.1932 61.902 66.9017 61.4112 66.9017C61.0124 66.9324 60.6443 67.0858 60.3529 67.3465V69.7545H59.9388V65.0919H60.3529V66.9938C60.6904 66.7177 61.0891 66.5643 61.5186 66.549C62.1934 66.549 62.4848 66.9324 62.4848 67.6379V69.7545ZM66.1198 69.7545H65.7057V67.6686C65.7057 67.1932 65.537 66.9017 65.0462 66.9017C64.6474 66.9324 64.2793 67.0858 63.9879 67.3465V69.7545H63.5738V65.0919H63.9879V66.9938C64.3253 66.7177 64.7241 66.5643 65.1535 66.549C65.8284 66.549 66.1198 66.9324 66.1198 67.6379V69.7545ZM66.994 68.1901C66.8713 67.3925 67.4235 66.6563 68.221 66.549C68.3131 66.5336 68.4051 66.5336 68.5124 66.5336C69.4787 66.5336 69.8775 67.1778 69.8775 68.1134C69.8775 69.1563 69.4634 69.8312 68.4204 69.8312C67.3468 69.8312 66.994 69.1257 66.994 68.1901ZM69.448 68.1441C69.448 67.2085 69.0953 66.8864 68.4818 66.8864C67.8529 66.8864 67.4235 67.2698 67.4235 68.1594C67.4235 69.049 67.7609 69.4631 68.4511 69.4631C69.0646 69.4784 69.448 69.1103 69.448 68.1441ZM70.5983 68.1901C70.5983 67.0858 71.1505 66.5336 72.1014 66.5336C72.6842 66.4876 73.2057 66.9171 73.2517 67.4999C73.2517 67.5306 73.2517 67.5613 73.2517 67.5919L72.8376 67.6533C72.7762 67.1471 72.5462 66.9017 72.0554 66.9017C71.5646 66.9017 71.0278 67.1778 71.0278 68.1441C71.0278 69.187 71.5339 69.4631 72.0554 69.4631C72.4695 69.5091 72.8376 69.2177 72.8836 68.8036C72.8836 68.7882 72.8836 68.7729 72.8836 68.7729L73.2824 68.8496C73.1904 69.4631 72.6382 69.8925 72.0247 69.8312C70.9818 69.8312 70.5983 69.1563 70.5983 68.1901ZM76.718 69.7545H76.3039V67.6686C76.3039 67.1932 76.1351 66.9017 75.6443 66.9017C75.2456 66.9324 74.8775 67.0858 74.5861 67.3465V69.7545H74.1719V65.0919H74.5861V66.9938C74.9235 66.7177 75.3223 66.5643 75.7517 66.549C76.4265 66.549 76.718 66.9324 76.718 67.6379V69.7545ZM79.8775 67.4846L79.4634 67.5306C79.3867 67.1165 79.264 66.8864 78.7425 66.8864C78.1904 66.8864 78.0677 67.1318 78.0677 67.3925C78.0677 67.7606 78.3437 67.8527 78.8192 67.96C79.402 68.0981 79.9235 68.2208 79.9235 68.9109C79.9235 69.4631 79.5094 69.8159 78.7425 69.8159C78.0523 69.8159 77.6075 69.5551 77.5155 68.8649L77.9143 68.8036C77.945 69.2024 78.2977 69.5091 78.7118 69.4784C78.7272 69.4784 78.7578 69.4784 78.7732 69.4784C79.1873 69.4784 79.5094 69.3557 79.5094 68.957C79.5094 68.5889 79.2486 68.5122 78.7885 68.3895C78.267 68.2514 77.6382 68.1747 77.6382 67.4539C77.6382 66.8404 78.1597 66.549 78.7578 66.549C79.2946 66.4723 79.7854 66.8404 79.8621 67.3619C79.8775 67.4079 79.8775 67.4386 79.8775 67.4846ZM80.6137 68.1901C80.6137 67.0858 81.1658 66.5336 82.1167 66.5336C82.6996 66.4876 83.221 66.9171 83.267 67.4999C83.267 67.5306 83.267 67.5613 83.267 67.5919L82.8529 67.6533C82.7916 67.1471 82.5615 66.9017 82.0707 66.9017C81.5799 66.9017 81.0431 67.1778 81.0431 68.1441C81.0431 69.187 81.5493 69.4631 82.0707 69.4631C82.4848 69.5091 82.8529 69.2177 82.8989 68.8036C82.8989 68.7882 82.8989 68.7729 82.8989 68.7729L83.2977 68.8496C83.2057 69.4631 82.6535 69.8925 82.04 69.8312C80.9971 69.8312 80.6137 69.1563 80.6137 68.1901ZM86.7333 69.7545H86.3192V67.6686C86.3192 67.1932 86.1505 66.9017 85.6597 66.9017C85.2609 66.9324 84.8928 67.0858 84.6014 67.3465V69.7545H84.1873V65.0919H84.6014V66.9938C84.9388 66.7177 85.3376 66.5643 85.767 66.549C86.4419 66.549 86.7333 66.9324 86.7333 67.6379V69.7545ZM87.8223 66.595H88.2364V68.6809C88.2364 69.1563 88.3897 69.4478 88.8805 69.4478C89.2793 69.4171 89.6474 69.2637 89.9388 69.003V66.595H90.3529V69.7545H89.9848L89.9542 69.3557C89.6167 69.6318 89.2026 69.7852 88.7578 69.8159C88.083 69.8159 87.8069 69.4324 87.8069 68.7269V66.595H87.8223ZM91.8867 69.7545H91.4726V65.0919H91.8867V69.7545ZM92.7762 68.1747C92.6535 67.3925 93.1904 66.6717 93.9726 66.549C94.0646 66.5336 94.1566 66.5336 94.2486 66.5336C95.1229 66.5336 95.4756 67.1165 95.4756 67.868C95.4756 67.9907 95.4603 68.1134 95.445 68.2514H93.221C93.2517 69.2024 93.6812 69.4478 94.2486 69.4478C94.6321 69.5091 94.9848 69.233 95.0462 68.8496L95.445 68.9263C95.3223 69.4938 94.8008 69.8772 94.218 69.8159C93.0983 69.8312 92.7762 69.049 92.7762 68.1747ZM95.0308 67.9293C95.0462 67.2852 94.8008 66.9017 94.2026 66.9017C93.6658 66.8864 93.221 67.3005 93.2057 67.8373C93.2057 67.868 93.2057 67.8987 93.2057 67.9293H95.0308Z" fill="white"/>
</svg>
